<svg width="10" height="18" viewBox="0 0 10 18" fill="none" xmlns="http://www.w3.org/2000/svg">
<path d="M4.58333 17.3332C3.30556 17.3332 2.22222 16.8887 1.33333 15.9998C0.444444 15.1109 0 14.0276 0 12.7498V3.99984C0 3.08317 0.326389 2.29845 0.979167 1.64567C1.63194 0.992893 2.41667 0.666504 3.33333 0.666504C4.25 0.666504 5.03472 0.992893 5.6875 1.64567C6.34028 2.29845 6.66667 3.08317 6.66667 3.99984V11.9165C6.66667 12.4998 6.46528 12.9929 6.0625 13.3957C5.65972 13.7984 5.16667 13.9998 4.58333 13.9998C4 13.9998 3.50694 13.7984 3.10417 13.3957C2.70139 12.9929 2.5 12.4998 2.5 11.9165V4.62484C2.5 4.44428 2.55917 4.29511 2.6775 4.17734C2.79528 4.059 2.94444 3.99984 3.125 3.99984C3.30556 3.99984 3.455 4.059 3.57333 4.17734C3.69111 4.29511 3.75 4.44428 3.75 4.62484V11.9165C3.75 12.1526 3.83 12.3504 3.99 12.5098C4.14944 12.6698 4.34722 12.7498 4.58333 12.7498C4.81944 12.7498 5.0175 12.6698 5.1775 12.5098C5.33695 12.3504 5.41667 12.1526 5.41667 11.9165V3.99984C5.41667 3.4165 5.21528 2.92345 4.8125 2.52067C4.40972 2.11789 3.91667 1.9165 3.33333 1.9165C2.75 1.9165 2.25694 2.11789 1.85417 2.52067C1.45139 2.92345 1.25 3.4165 1.25 3.99984V12.7498C1.25 13.6665 1.57639 14.4512 2.22917 15.104C2.88194 15.7568 3.66667 16.0832 4.58333 16.0832C5.5 16.0832 6.28472 15.7568 6.9375 15.104C7.59028 14.4512 7.91667 13.6665 7.91667 12.7498V4.62484C7.91667 4.44428 7.97583 4.29511 8.09417 4.17734C8.21195 4.059 8.36111 3.99984 8.54167 3.99984C8.72222 3.99984 8.87167 4.059 8.99 4.17734C9.10778 4.29511 9.16667 4.44428 9.16667 4.62484V12.7498C9.16667 14.0276 8.72222 15.1109 7.83333 15.9998C6.94444 16.8887 5.86111 17.3332 4.58333 17.3332Z" fill="#666666"/>
</svg>
