<svg width="98" height="98" viewBox="0 0 98 98" fill="none" xmlns="http://www.w3.org/2000/svg">
<path fill-rule="evenodd" clip-rule="evenodd" d="M11.8145 12.7578C11.8145 6.09156 17.2185 0.6875 23.8848 0.6875H74.1777C76.3998 0.6875 78.2012 2.48885 78.2012 4.71094C78.2012 6.93302 76.3998 8.73438 74.1777 8.73438H23.8848C21.6627 8.73438 19.8613 10.5357 19.8613 12.7578C19.8613 14.9799 21.6627 16.7812 23.8848 16.7812H78.2012C84.8674 16.7812 90.2715 22.1853 90.2715 28.8516V85.1797C90.2715 91.8459 84.8674 97.25 78.2012 97.25H23.8848C17.2185 97.25 11.8145 91.8459 11.8145 85.1797V81.1562C9.59237 81.1562 7.79102 79.3549 7.79102 77.1328C7.79102 74.9107 9.59237 73.1094 11.8145 73.1094V65.0625C9.59237 65.0625 7.79102 63.2611 7.79102 61.0391C7.79102 58.817 9.59237 57.0156 11.8145 57.0156L11.8145 48.9688C9.59237 48.9688 7.79102 47.1674 7.79102 44.9453C7.79102 42.7232 9.59237 40.9219 11.8145 40.9219L11.8145 36.8984C11.8145 34.6764 13.6158 32.875 15.8379 32.875C18.06 32.875 19.8613 34.6764 19.8613 36.8984V40.9219C22.0834 40.9219 23.8848 42.7232 23.8848 44.9453C23.8848 47.1674 22.0834 48.9688 19.8613 48.9688V57.0156C22.0834 57.0156 23.8848 58.817 23.8848 61.0391C23.8848 63.2611 22.0834 65.0625 19.8613 65.0625V73.1094C22.0834 73.1094 23.8848 74.9107 23.8848 77.1328C23.8848 79.3549 22.0834 81.1562 19.8613 81.1562V85.1797C19.8613 87.4018 21.6627 89.2031 23.8848 89.2031H78.2012C80.4233 89.2031 82.2246 87.4018 82.2246 85.1797V28.8516C82.2246 26.6295 80.4233 24.8281 78.2012 24.8281H23.8848C17.2185 24.8281 11.8145 19.4241 11.8145 12.7578ZM56.0723 44.9453C56.0723 47.1674 54.2709 48.9688 52.0488 48.9688C49.8267 48.9688 48.0254 47.1674 48.0254 44.9453C48.0254 42.7232 49.8267 40.9219 52.0488 40.9219C54.2709 40.9219 56.0723 42.7232 56.0723 44.9453ZM64.1191 44.9453C64.1191 51.6116 58.7151 57.0156 52.0488 57.0156C45.3826 57.0156 39.9785 51.6116 39.9785 44.9453C39.9785 38.2791 45.3826 32.875 52.0488 32.875C58.7151 32.875 64.1191 38.2791 64.1191 44.9453ZM44.7009 71.5802C46.8089 69.9627 49.3917 69.0859 52.0488 69.0859C54.7059 69.0859 57.2888 69.9627 59.3968 71.5802C61.5048 73.1978 63.0201 75.4657 63.7079 78.0322C64.283 80.1786 66.4892 81.4523 68.6355 80.8772C70.7819 80.3021 72.0557 78.0959 71.4805 75.9495C70.3344 71.672 67.8088 67.8921 64.2954 65.1962C60.7821 62.5003 56.4773 61.0391 52.0488 61.0391C47.6204 61.0391 43.3156 62.5003 39.8023 65.1962C36.2889 67.8921 33.7633 71.672 32.6171 75.9495C32.042 78.0959 33.3158 80.3021 35.4621 80.8772C37.6085 81.4523 39.8147 80.1786 40.3898 78.0322C41.0775 75.4657 42.5929 73.1978 44.7009 71.5802Z" fill="#627D98"/>
</svg>
