<svg width="18" height="18" viewBox="0 0 18 18" fill="none" xmlns="http://www.w3.org/2000/svg">
<path d="M15.6667 8.99984C15.6667 7.23173 14.9644 5.53603 13.7141 4.28579C12.4639 3.03555 10.7682 2.33317 9.00008 2.33317C7.23197 2.33317 5.53628 3.03555 4.28604 4.28579C3.03579 5.53603 2.33341 7.23173 2.33341 8.99984C2.33341 10.7679 3.03579 12.4636 4.28604 13.7139C5.53628 14.9641 7.23197 15.6665 9.00008 15.6665C10.7682 15.6665 12.4639 14.9641 13.7141 13.7139C14.9644 12.4636 15.6667 10.7679 15.6667 8.99984ZM17.3334 8.99984C17.3334 11.21 16.4554 13.3296 14.8926 14.8924C13.3298 16.4552 11.2102 17.3332 9.00008 17.3332C7.90573 17.3332 6.8221 17.1176 5.81105 16.6988C4.80001 16.28 3.88135 15.6662 3.10752 14.8924C1.54472 13.3296 0.666748 11.21 0.666748 8.99984C0.666748 6.7897 1.54472 4.67008 3.10752 3.10728C4.67033 1.54448 6.78994 0.666504 9.00008 0.666504C10.0944 0.666504 11.1781 0.882052 12.1891 1.30084C13.2002 1.71963 14.1188 2.33346 14.8926 3.10728C15.6665 3.8811 16.2803 4.79976 16.6991 5.81081C17.1179 6.82185 17.3334 7.90549 17.3334 8.99984ZM7.33341 6.9165C7.33341 7.58317 6.75008 8.1665 6.08341 8.1665C5.41675 8.1665 4.83341 7.58317 4.83341 6.9165C4.83341 6.24984 5.41675 5.6665 6.08341 5.6665C6.75008 5.6665 7.33341 6.24984 7.33341 6.9165ZM13.1667 6.9165C13.1667 7.58317 12.5834 8.1665 11.9167 8.1665C11.2501 8.1665 10.6667 7.58317 10.6667 6.9165C10.6667 6.24984 11.2501 5.6665 11.9167 5.6665C12.5834 5.6665 13.1667 6.24984 13.1667 6.9165ZM9.00008 13.3582C7.54175 13.3582 6.25841 12.7498 5.50841 11.8498L6.69175 10.6665C7.06675 11.2665 7.95841 11.6915 9.00008 11.6915C10.0417 11.6915 10.9334 11.2665 11.3084 10.6665L12.4917 11.8498C11.7417 12.7498 10.4584 13.3582 9.00008 13.3582Z" fill="#666666"/>
</svg>
