<svg width="98" height="97" viewBox="0 0 98 97" fill="none" xmlns="http://www.w3.org/2000/svg">
<path fill-rule="evenodd" clip-rule="evenodd" d="M36.9609 8.35938C52.5155 8.35938 65.125 20.9689 65.125 36.5234C65.125 52.078 52.5155 64.6875 36.9609 64.6875C33.5803 64.6875 30.3474 64.0936 27.3549 63.008C26.0358 62.5295 24.5691 62.4225 23.1384 62.7739C19.2956 63.7177 15.3727 64.3165 11.4164 64.5611C12.9041 60.6414 13.4181 56.4039 12.8951 52.218C12.7788 51.2869 12.4742 50.4704 12.1125 49.7946C9.99771 45.8445 8.79688 41.3302 8.79688 36.5234C8.79688 20.9689 21.4064 8.35938 36.9609 8.35938ZM73.1719 36.5234C73.1719 16.5247 56.9597 0.3125 36.9609 0.3125C16.9622 0.3125 0.75 16.5247 0.75 36.5234C0.75 42.6258 2.26273 48.3865 4.93685 53.4396C5.35423 57.1647 4.58081 60.9384 2.71075 64.211L2.54572 64.4998C0.449051 68.169 3.09841 72.7344 7.32444 72.7344C13.2303 72.7344 19.1022 72.0307 24.8179 70.6469C28.6189 71.9996 32.7084 72.7344 36.9609 72.7344C56.9597 72.7344 73.1719 56.5222 73.1719 36.5234ZM82.6479 33.5385C80.9495 34.9713 80.7341 37.5096 82.1668 39.2081C86.5984 44.4616 89.2656 51.2403 89.2656 58.6523C89.2656 63.8127 87.9736 68.6594 85.6987 72.8984C85.334 73.578 85.0313 74.3936 84.9142 75.3194C84.339 79.8685 84.9277 84.4769 86.6068 88.7164C82.2361 88.4705 77.9018 87.8193 73.6595 86.7736C72.2275 86.4207 70.7569 86.527 69.4333 87.0099C66.2123 88.1851 62.7307 88.8281 59.0898 88.8281C51.6778 88.8281 44.8991 86.1609 39.6457 81.7293C37.9472 80.2965 35.4088 80.5119 33.976 82.2104C32.5433 83.9089 32.7587 86.4473 34.4571 87.88C41.1078 93.4902 49.7088 96.875 59.0898 96.875C63.6053 96.875 67.9462 96.0902 71.978 94.6465C78.0546 96.1237 84.2985 96.875 90.5785 96.875C94.8756 96.875 97.5695 92.2329 95.4376 88.502L95.2623 88.1951C93.2409 84.6577 92.4095 80.5765 92.8708 76.5503C95.7073 71.2067 97.3125 65.1111 97.3125 58.6523C97.3125 49.2712 93.9278 40.6703 88.3176 34.0196C86.8848 32.3211 84.3464 32.1057 82.6479 33.5385ZM20.8672 40.5469C23.0893 40.5469 24.8906 38.7455 24.8906 36.5234C24.8906 34.3014 23.0893 32.5 20.8672 32.5C18.6451 32.5 16.8438 34.3014 16.8438 36.5234C16.8438 38.7455 18.6451 40.5469 20.8672 40.5469ZM40.9844 36.5234C40.9844 38.7455 39.183 40.5469 36.9609 40.5469C34.7389 40.5469 32.9375 38.7455 32.9375 36.5234C32.9375 34.3014 34.7389 32.5 36.9609 32.5C39.183 32.5 40.9844 34.3014 40.9844 36.5234ZM53.0547 40.5469C55.2768 40.5469 57.0781 38.7455 57.0781 36.5234C57.0781 34.3014 55.2768 32.5 53.0547 32.5C50.8326 32.5 49.0312 34.3014 49.0312 36.5234C49.0312 38.7455 50.8326 40.5469 53.0547 40.5469Z" fill="#E3F8FF"/>
</svg>
