<svg width="98" height="97" viewBox="0 0 98 97" fill="none" xmlns="http://www.w3.org/2000/svg">
<path fill-rule="evenodd" clip-rule="evenodd" d="M16.8438 20.4922C16.8438 18.2701 18.6451 16.4688 20.8672 16.4688H55.0664H67.1367C69.3588 16.4688 71.1602 14.6674 71.1602 12.4453C71.1602 10.2232 69.3588 8.42188 67.1367 8.42188H55.0664H20.8672C14.2009 8.42188 8.79688 13.8259 8.79688 20.4922V74.8086C8.79688 77.0307 10.5982 78.832 12.8203 78.832C15.0424 78.832 16.8438 77.0307 16.8438 74.8086V20.4922ZM53.0547 24.5156C51.9876 24.5156 50.9642 24.9395 50.2097 25.6941L26.0691 49.8347C25.3145 50.5892 24.8906 51.6126 24.8906 52.6797V78.6085C24.8906 84.2872 29.4941 88.8906 35.1727 88.8906H78.9835C84.6622 88.8906 89.2656 84.2872 89.2656 78.6085V34.7977C89.2656 29.1191 84.6622 24.5156 78.9835 24.5156H53.0547ZM57.0781 32.5625H78.9835C80.218 32.5625 81.2188 33.5633 81.2188 34.7977V78.6085C81.2188 79.843 80.218 80.8438 78.9835 80.8438H35.1727C33.9383 80.8438 32.9375 79.843 32.9375 78.6085V56.7031H53.0547C55.2768 56.7031 57.0781 54.9018 57.0781 52.6797V32.5625ZM49.0312 48.6562H38.6275L49.0312 38.2525V48.6562Z" fill="#627D98"/>
</svg>
