<svg width="98" height="97" viewBox="0 0 98 97" fill="none" xmlns="http://www.w3.org/2000/svg">
<path fill-rule="evenodd" clip-rule="evenodd" d="M8.79688 24.1406C8.79688 21.9185 10.5982 20.1172 12.8203 20.1172H61.1016C63.3236 20.1172 65.125 21.9185 65.125 24.1406V41.7874V54.7751V72.4219C65.125 74.644 63.3236 76.4453 61.1016 76.4453C58.8795 76.4453 57.0781 78.2467 57.0781 80.4688C57.0781 82.6908 58.8795 84.4922 61.1016 84.4922C67.7678 84.4922 73.1719 79.0881 73.1719 72.4219V63.3691L86.4402 68.3448C91.7008 70.3175 97.3125 66.4286 97.3125 60.8102V35.7523C97.3125 30.1339 91.7008 26.245 86.4402 28.2177L73.1719 33.1934V24.1406C73.1719 17.4744 67.7678 12.0703 61.1016 12.0703H12.8203C6.15406 12.0703 0.75 17.4744 0.75 24.1406V56.3281C0.75 58.5502 2.55135 60.3516 4.77344 60.3516C6.99552 60.3516 8.79688 58.5502 8.79688 56.3281V24.1406ZM73.1719 54.7751L89.2656 60.8102V35.7523L73.1719 41.7874V54.7751ZM28.9141 48.2812C31.1361 48.2812 32.9375 46.4799 32.9375 44.2578C32.9375 42.0357 31.1361 40.2344 28.9141 40.2344C26.692 40.2344 24.8906 42.0357 24.8906 44.2578C24.8906 46.4799 26.692 48.2812 28.9141 48.2812ZM28.9141 56.3281C35.5803 56.3281 40.9844 50.9241 40.9844 44.2578C40.9844 37.5916 35.5803 32.1875 28.9141 32.1875C22.2478 32.1875 16.8438 37.5916 16.8438 44.2578C16.8438 50.9241 22.2478 56.3281 28.9141 56.3281ZM24.295 69.3172C25.7594 68.7106 27.329 68.3984 28.9141 68.3984C30.4992 68.3984 32.0687 68.7106 33.5332 69.3172C34.9976 69.9238 36.3282 70.8129 37.4491 71.9338C38.5699 73.0546 39.459 74.3852 40.0656 75.8496C40.6722 77.3141 40.9844 78.8837 40.9844 80.4688C40.9844 82.6908 42.7857 84.4922 45.0078 84.4922C47.2299 84.4922 49.0312 82.6908 49.0312 80.4688C49.0312 77.8269 48.5109 75.211 47.4999 72.7702C46.4889 70.3295 45.0071 68.1118 43.1391 66.2438C41.271 64.3757 39.0533 62.8939 36.6126 61.8829C34.1718 60.8719 31.5559 60.3516 28.9141 60.3516C26.2722 60.3516 23.6563 60.8719 21.2155 61.8829C18.7748 62.8939 16.5571 64.3757 14.6891 66.2438C12.821 68.1118 11.3392 70.3295 10.3282 72.7702C9.31722 75.211 8.79688 77.8269 8.79688 80.4688C8.79688 82.6908 10.5982 84.4922 12.8203 84.4922C15.0424 84.4922 16.8438 82.6908 16.8438 80.4688C16.8438 78.8837 17.156 77.3141 17.7625 75.8496C18.3691 74.3852 19.2582 73.0546 20.3791 71.9338C21.4999 70.8129 22.8305 69.9238 24.295 69.3172Z" fill="#627D98"/>
</svg>
